<svg width="1442" height="43" viewBox="0 0 1442 43" fill="none" xmlns="http://www.w3.org/2000/svg">
<path d="M216.247 28.9842V27.914C216.247 19.6772 209.57 13 201.333 13V0H259.125V13H258.498C250.093 13 243.279 19.8138 243.279 28.2191V28.9842C243.279 36.4488 237.228 42.5 229.763 42.5C222.299 42.5 216.247 36.4488 216.247 28.9842Z" fill="#1c1c1c"/>
<path d="M274.039 28.9842V27.914C274.039 19.6772 267.362 13 259.125 13V0H316.917V13H316.29C307.885 13 301.071 19.8138 301.071 28.2191V28.9842C301.071 36.4488 295.019 42.5 287.555 42.5C280.09 42.5 274.039 36.4488 274.039 28.9842Z" fill="#1c1c1c"/>
<path d="M331.831 28.9842V27.914C331.831 19.6772 325.154 13 316.917 13V0H374.708V13H374.081C365.676 13 358.862 19.8138 358.862 28.2191V28.9842C358.862 36.4488 352.811 42.5 345.347 42.5C337.882 42.5 331.831 36.4488 331.831 28.9842Z" fill="#1c1c1c"/>
<path d="M389.622 28.9842V27.914C389.622 19.6772 382.945 13 374.708 13V0H432.5V13H431.873C423.468 13 416.654 19.8138 416.654 28.2191V28.9842C416.654 36.4488 410.603 42.5 403.138 42.5C395.674 42.5 389.622 36.4488 389.622 28.9842Z" fill="#1c1c1c"/>
<path d="M678.581 28.9842V27.914C678.581 19.6772 671.904 13 663.667 13V0H721.458V13H720.831C712.426 13 705.612 19.8138 705.612 28.2191V28.9842C705.612 36.4488 699.561 42.5 692.097 42.5C684.632 42.5 678.581 36.4488 678.581 28.9842Z" fill="#1c1c1c"/>
<path d="M736.372 28.9842V27.914C736.372 19.6772 729.695 13 721.458 13V0H779.25V13H778.623C770.218 13 763.404 19.8138 763.404 28.2191V28.9842C763.404 36.4488 757.353 42.5 749.888 42.5C742.423 42.5 736.372 36.4488 736.372 28.9842Z" fill="#1c1c1c"/>
<path d="M794.164 28.9842V27.914C794.164 19.6772 787.487 13 779.25 13V0H837.042V13H836.415C828.009 13 821.196 19.8138 821.196 28.2191V28.9842C821.196 36.4488 815.144 42.5 807.68 42.5C800.215 42.5 794.164 36.4488 794.164 28.9842Z" fill="#1c1c1c"/>
<path d="M851.956 28.9842V27.914C851.956 19.6772 845.279 13 837.042 13V0H894.833V13H894.206C885.801 13 878.987 19.8138 878.987 28.2191V28.9842C878.987 36.4488 872.936 42.5 865.472 42.5C858.007 42.5 851.956 36.4488 851.956 28.9842Z" fill="#1c1c1c"/>
<path d="M-14.9194 28.9842V27.914C-14.9194 19.6772 -21.5966 13 -29.8334 13V0H27.9583V13H27.3313C18.926 13 12.1122 19.8138 12.1122 28.2191V28.9842C12.1122 36.4488 6.06097 42.5 -1.4036 42.5C-8.86817 42.5 -14.9194 36.4488 -14.9194 28.9842Z" fill="#1c1c1c"/>
<path d="M42.8724 28.9842V27.914C42.8724 19.6772 36.1951 13 27.9584 13V0H85.75V13H85.123C76.7178 13 69.9039 19.8138 69.9039 28.2191V28.9842C69.9039 36.4488 63.8527 42.5 56.3881 42.5C48.9236 42.5 42.8724 36.4488 42.8724 28.9842Z" fill="#1c1c1c"/>
<path d="M100.664 28.9842V27.914C100.664 19.6772 93.9868 13 85.75 13V0H143.542V13H142.915C134.509 13 127.696 19.8138 127.696 28.2191V28.9842C127.696 36.4488 121.644 42.5 114.18 42.5C106.715 42.5 100.664 36.4488 100.664 28.9842Z" fill="#1c1c1c"/>
<path d="M158.456 28.9842V27.914C158.456 19.6772 151.778 13 143.542 13V0H201.333V13H200.706C192.301 13 185.487 19.8138 185.487 28.2191V28.9842C185.487 36.4488 179.436 42.5 171.971 42.5C164.507 42.5 158.456 36.4488 158.456 28.9842Z" fill="#1c1c1c"/>
<path d="M447.414 28.9842V27.914C447.414 19.6772 440.737 13 432.5 13V0H490.292V13H489.665C481.259 13 474.446 19.8138 474.446 28.2191V28.9842C474.446 36.4488 468.394 42.5 460.93 42.5C453.465 42.5 447.414 36.4488 447.414 28.9842Z" fill="#1c1c1c"/>
<path d="M505.206 28.9842V27.914C505.206 19.6772 498.529 13 490.292 13V0H548.083V13H547.456C539.051 13 532.237 19.8138 532.237 28.2191V28.9842C532.237 36.4488 526.186 42.5 518.722 42.5C511.257 42.5 505.206 36.4488 505.206 28.9842Z" fill="#1c1c1c"/>
<path d="M562.997 28.9842V27.914C562.997 19.6772 556.32 13 548.083 13V0H605.875V13H605.248C596.843 13 590.029 19.8138 590.029 28.2191V28.9842C590.029 36.4488 583.978 42.5 576.513 42.5C569.048 42.5 562.997 36.4488 562.997 28.9842Z" fill="#1c1c1c"/>
<path d="M620.789 28.9842V27.914C620.789 19.6772 614.112 13 605.875 13V0H663.667V13H663.04C654.634 13 647.821 19.8138 647.821 28.2191V28.9842C647.821 36.4488 641.769 42.5 634.305 42.5C626.84 42.5 620.789 36.4488 620.789 28.9842Z" fill="#1c1c1c"/>
<path d="M909.747 28.9842V27.914C909.747 19.6772 903.07 13 894.833 13V0H952.625V13H951.998C943.593 13 936.779 19.8138 936.779 28.2191V28.9842C936.779 36.4488 930.728 42.5 923.263 42.5C915.799 42.5 909.747 36.4488 909.747 28.9842Z" fill="#1c1c1c"/>
<path d="M967.539 28.9842V27.914C967.539 19.6772 960.862 13 952.625 13V0H1010.42V13H1009.79C1001.38 13 994.571 19.8138 994.571 28.2191V28.9842C994.571 36.4488 988.519 42.5 981.055 42.5C973.59 42.5 967.539 36.4488 967.539 28.9842Z" fill="#1c1c1c"/>
<path d="M1025.33 28.9842V27.914C1025.33 19.6772 1018.65 13 1010.42 13V0H1068.21V13H1067.58C1059.18 13 1052.36 19.8138 1052.36 28.2191V28.9842C1052.36 36.4488 1046.31 42.5 1038.85 42.5C1031.38 42.5 1025.33 36.4488 1025.33 28.9842Z" fill="#1c1c1c"/>
<path d="M1083.12 28.9842V27.914C1083.12 19.6772 1076.45 13 1068.21 13V0H1126V13H1125.37C1116.97 13 1110.15 19.8138 1110.15 28.2191V28.9842C1110.15 36.4488 1104.1 42.5 1096.64 42.5C1089.17 42.5 1083.12 36.4488 1083.12 28.9842Z" fill="#1c1c1c"/>
<path d="M1140.91 28.9842V27.914C1140.91 19.6772 1134.24 13 1126 13V0H1183.79V13H1183.16C1174.76 13 1167.95 19.8138 1167.95 28.2191V28.9842C1167.95 36.4488 1161.89 42.5 1154.43 42.5C1146.97 42.5 1140.91 36.4488 1140.91 28.9842Z" fill="#1c1c1c"/>
<path d="M1198.71 28.9842V27.914C1198.71 19.6772 1192.03 13 1183.79 13V0H1241.58V13H1240.96C1232.55 13 1225.74 19.8138 1225.74 28.2191V28.9842C1225.74 36.4488 1219.69 42.5 1212.22 42.5C1204.76 42.5 1198.71 36.4488 1198.71 28.9842Z" fill="#1c1c1c"/>
<path d="M1256.5 28.9842V27.914C1256.5 19.6772 1249.82 13 1241.58 13V0H1299.37V13H1298.75C1290.34 13 1283.53 19.8138 1283.53 28.2191V28.9842C1283.53 36.4488 1277.48 42.5 1270.01 42.5C1262.55 42.5 1256.5 36.4488 1256.5 28.9842Z" fill="#1c1c1c"/>
<path d="M1314.29 28.9842V27.914C1314.29 19.6772 1307.61 13 1299.38 13V0H1357.17V13H1356.54C1348.13 13 1341.32 19.8138 1341.32 28.2191V28.9842C1341.32 36.4488 1335.27 42.5 1327.8 42.5C1320.34 42.5 1314.29 36.4488 1314.29 28.9842Z" fill="#1c1c1c"/>
<path d="M1372.08 28.9842V27.914C1372.08 19.6772 1365.4 13 1357.17 13V0H1414.96V13H1414.33C1405.93 13 1399.11 19.8138 1399.11 28.2191V28.9842C1399.11 36.4488 1393.06 42.5 1385.6 42.5C1378.13 42.5 1372.08 36.4488 1372.08 28.9842Z" fill="#1c1c1c"/>
<path d="M1429.87 28.9842V27.914C1429.87 19.6772 1423.2 13 1414.96 13V0H1472.75V13H1472.12C1463.72 13 1456.9 19.8138 1456.9 28.2191V28.9842C1456.9 36.4488 1450.85 42.5 1443.39 42.5C1435.92 42.5 1429.87 36.4488 1429.87 28.9842Z" fill="#1c1c1c"/>
</svg>
